<svg width="28" height="28" viewBox="0 0 28 28" fill="none" xmlns="http://www.w3.org/2000/svg">
<g id="Common/en-img">
<path id="Vector" d="M24.0003 3.99985H4.00035C3.55832 3.99985 3.1344 4.17544 2.82183 4.488C2.50927 4.80056 2.33368 5.22449 2.33368 5.66651V22.3332C2.33368 22.7752 2.50927 23.1991 2.82183 23.5117C3.1344 23.8243 3.55832 23.9998 4.00035 23.9998H24.0003C24.4424 23.9998 24.8663 23.8243 25.1789 23.5117C25.4914 23.1991 25.667 22.7752 25.667 22.3332V5.66651C25.667 5.22449 25.4914 4.80056 25.1789 4.488C24.8663 4.17544 24.4424 3.99985 24.0003 3.99985ZM23.167 6.49985V15.4998L19.967 13.6332C19.7259 13.5048 19.4569 13.4376 19.1837 13.4376C18.9105 13.4376 18.6415 13.5048 18.4003 13.6332L15.567 14.9998L10.7503 9.99985C10.4388 9.69447 10.0199 9.52342 9.58368 9.52342C9.14742 9.52342 8.72856 9.69447 8.41701 9.99985L4.83368 13.3332V6.66651L23.167 6.49985ZM4.83368 21.4998V16.4998C4.88539 16.4605 4.94128 16.4269 5.00035 16.3998L9.50035 12.2332L16.167 19.2498C16.2659 19.4023 16.3969 19.5313 16.5508 19.6279C16.7046 19.7245 16.8777 19.7864 17.058 19.8093C17.2382 19.8322 17.4213 19.8155 17.5945 19.7605C17.7676 19.7054 17.9267 19.6132 18.0605 19.4904C18.1944 19.3675 18.2999 19.217 18.3697 19.0492C18.4395 18.8815 18.4718 18.7005 18.4645 18.519C18.4572 18.3374 18.4104 18.1596 18.3273 17.998C18.2443 17.8364 18.127 17.6948 17.9837 17.5832L17.3337 16.8665L19.0003 16.0165L23.067 18.3998V21.4998H4.83368ZM18.7337 10.0165C18.7337 10.4286 18.6115 10.8313 18.3826 11.174C18.1537 11.5166 17.8283 11.7836 17.4476 11.9413C17.0669 12.0989 16.648 12.1402 16.2439 12.0598C15.8398 11.9794 15.4686 11.781 15.1772 11.4897C14.8858 11.1983 14.6874 10.8271 14.607 10.423C14.5267 10.0188 14.5679 9.59994 14.7256 9.21926C14.8833 8.83858 15.1503 8.51321 15.4929 8.28429C15.8355 8.05537 16.2383 7.93318 16.6503 7.93318C16.9246 7.93096 17.1965 7.98333 17.4502 8.08724C17.704 8.19115 17.9345 8.34453 18.1284 8.53843C18.3223 8.73232 18.4757 8.96287 18.5796 9.21664C18.6835 9.4704 18.7359 9.74231 18.7337 10.0165Z" fill="black"/>
</g>
</svg>
