<svg width="16" height="16" viewBox="0 0 16 16" fill="none" xmlns="http://www.w3.org/2000/svg">
<path d="M8 4.5C10.2624 4.5 12.4447 6.89 13.3256 8C12.4447 9.11 10.2624 11.5 8 11.5C5.73761 11.5 3.5553 9.11 2.67437 8C3.5553 6.89 5.73761 4.5 8 4.5ZM8 3C4.86669 3 2.19386 6.08 1.1928 7.41C1.06752 7.58126 1 7.78788 1 8C1 8.21212 1.06752 8.41874 1.1928 8.59C2.19386 9.92 4.86669 13 8 13C11.1333 13 13.8061 9.92 14.8072 8.59C14.9325 8.41874 15 8.21212 15 8C15 7.78788 14.9325 7.58126 14.8072 7.41C13.8061 6.08 11.1333 3 8 3ZM8 5.5C7.62828 5.49836 7.26138 5.58399 6.92887 5.75C7.15266 5.76222 7.36764 5.84116 7.54608 5.97663C7.72452 6.1121 7.85822 6.29788 7.92993 6.51V6.51C7.99549 6.70815 8.00484 6.92057 7.95694 7.12371C7.90904 7.32684 7.80576 7.51276 7.65856 7.66085C7.51135 7.80893 7.32596 7.91341 7.12295 7.96268C6.91994 8.01195 6.70724 8.0041 6.50842 7.94V7.94C6.29608 7.86837 6.1101 7.73481 5.97449 7.55656C5.83887 7.37831 5.75985 7.16355 5.74762 6.94C5.58296 7.26914 5.49727 7.63205 5.49735 8C5.49735 8.49445 5.64413 8.9778 5.91913 9.38893C6.19412 9.80005 6.58498 10.1205 7.04228 10.3097C7.49958 10.4989 8.00278 10.5484 8.48824 10.452C8.97371 10.3555 9.41964 10.1174 9.76964 9.76777C10.1196 9.41814 10.358 8.97268 10.4546 8.48773C10.5511 8.00277 10.5016 7.50011 10.3121 7.04329C10.1227 6.58648 9.80195 6.19603 9.3904 5.92133C8.97884 5.64662 8.49498 5.5 8 5.5V5.5Z" fill="black"/>
</svg>
