<svg width="16" height="16" viewBox="0 0 16 16" fill="none" xmlns="http://www.w3.org/2000/svg">
<path d="M5.07993 5.99978H10.9199C11.0226 5.99273 11.1252 6.01575 11.215 6.06601C11.3048 6.11628 11.3781 6.19161 11.4258 6.28282C11.4735 6.37402 11.4937 6.47715 11.4837 6.57961C11.4738 6.68207 11.4343 6.77942 11.3699 6.85978L8.44993 9.79978C8.39363 9.86362 8.32438 9.91475 8.2468 9.94978C8.16921 9.9848 8.08506 10.0029 7.99993 10.0029C7.91481 10.0029 7.83066 9.9848 7.75307 9.94978C7.67549 9.91475 7.60624 9.86362 7.54993 9.79978L4.62993 6.85978C4.5656 6.77942 4.52606 6.68207 4.51614 6.57961C4.50622 6.47715 4.52635 6.37402 4.57407 6.28282C4.6218 6.19161 4.69505 6.11628 4.78488 6.06601C4.87471 6.01575 4.97724 5.99273 5.07993 5.99978V5.99978Z" fill="#818590"/>
</svg>
