<svg width="16" height="16" viewBox="0 0 16 16" fill="none" xmlns="http://www.w3.org/2000/svg">
<path d="M6.55583 11.5223C6.43195 11.5257 6.31128 11.4826 6.21745 11.4015C6.12363 11.3204 6.0634 11.2071 6.04858 11.0839V7.09815C6.04858 6.96601 6.10097 6.83929 6.19423 6.74586C6.2875 6.65242 6.41399 6.59993 6.54588 6.59993C6.67777 6.59993 6.80427 6.65242 6.89753 6.74586C6.99079 6.83929 7.04319 6.96601 7.04319 7.09815V11.0839C7.03083 11.2045 6.97408 11.3163 6.88399 11.3973C6.79389 11.4784 6.67691 11.5229 6.55583 11.5223ZM10.027 11.0839V7.09815C10.027 6.96601 9.97462 6.83929 9.88136 6.74586C9.78809 6.65242 9.6616 6.59993 9.52971 6.59993C9.39782 6.59993 9.27132 6.65242 9.17806 6.74586C9.0848 6.83929 9.0324 6.96601 9.0324 7.09815V11.0839C9.03239 11.1488 9.04532 11.2131 9.07043 11.273C9.09554 11.3329 9.13233 11.3872 9.17865 11.4327C9.22496 11.4782 9.27987 11.5139 9.34015 11.5379C9.40043 11.5618 9.46488 11.5734 9.52971 11.5721C9.6599 11.5721 9.7849 11.521 9.87789 11.4297C9.97087 11.3384 10.0244 11.2143 10.027 11.0839ZM15.0001 4.9359C14.9974 5.13237 14.9177 5.3199 14.7781 5.4579C14.6385 5.59591 14.4502 5.67327 14.2541 5.67325H13.7568L12.1853 14.1927C12.1409 14.423 12.0168 14.6302 11.8348 14.7779C11.6529 14.9255 11.4248 15.0041 11.1907 14.9998H4.90478C4.67068 15.0041 4.4426 14.9255 4.26066 14.7779C4.07873 14.6302 3.95461 14.423 3.91017 14.1927L2.34863 5.62343H1.82149C1.71833 5.63551 1.61378 5.62557 1.51473 5.59428C1.41567 5.56299 1.32435 5.51105 1.24676 5.44187C1.16918 5.3727 1.10708 5.28785 1.06456 5.19292C1.02204 5.09798 1.00006 4.99511 1.00006 4.89106C1.00006 4.787 1.02204 4.68413 1.06456 4.5892C1.10708 4.49426 1.16918 4.40942 1.24676 4.34024C1.32435 4.27107 1.41567 4.21913 1.51473 4.18783C1.61378 4.15654 1.71833 4.14661 1.82149 4.15868H4.86499C4.92132 3.33616 5.27424 2.56222 5.85797 1.98108C6.44171 1.39994 7.21644 1.05126 8.0378 1C8.86091 1.04892 9.63805 1.39658 10.2238 1.97795C10.8096 2.55931 11.164 3.33456 11.2205 4.15868H14.2044C14.3051 4.15047 14.4064 4.16312 14.502 4.19585C14.5977 4.22858 14.6855 4.28069 14.7602 4.34893C14.8348 4.41717 14.8947 4.50008 14.9359 4.59249C14.9772 4.68491 14.999 4.78484 15.0001 4.88608V4.9359ZM12.235 5.69318H3.87038L5.31257 13.4753H10.7929L12.235 5.69318ZM6.36685 4.15868H9.73858C9.69636 3.72209 9.50335 3.31395 9.19285 3.0047C8.88235 2.69545 8.47383 2.50448 8.0378 2.46475C7.60711 2.51101 7.20559 2.70486 6.90112 3.01351C6.59666 3.32217 6.40793 3.72669 6.36685 4.15868Z" fill="black"/>
</svg>
