<svg width="16" height="16" viewBox="0 0 16 16" fill="none" xmlns="http://www.w3.org/2000/svg">
<path d="M10.9885 1.6684L10.9886 1.66828C11.0519 1.6079 11.1359 1.57422 11.2234 1.57422C11.31 1.57422 11.3934 1.6073 11.4564 1.66666C11.4807 1.69059 11.4999 1.71903 11.5132 1.75039C11.5267 1.78242 11.5337 1.81683 11.5337 1.8516C11.5337 1.88637 11.5267 1.92078 11.5132 1.95281C11.4998 1.98442 11.4803 2.01307 11.4559 2.03711L5.52753 7.71552L5.14854 8.07852L5.52945 8.43951L11.4566 14.0568C11.4807 14.0807 11.5 14.1091 11.5132 14.1404C11.5267 14.1724 11.5337 14.2068 11.5337 14.2416C11.5337 14.2764 11.5267 14.3108 11.5132 14.3428C11.4999 14.3742 11.4807 14.4026 11.4564 14.4265C11.3934 14.4859 11.31 14.519 11.2234 14.519C11.1359 14.519 11.0519 14.4853 10.9886 14.4249L10.9885 14.4248L4.6985 8.42481L4.6986 8.4247L4.68969 8.4166C4.63813 8.36974 4.59693 8.31262 4.56874 8.2489C4.54055 8.18518 4.52599 8.11628 4.52599 8.0466C4.52599 7.97693 4.54055 7.90802 4.56874 7.8443C4.59694 7.78059 4.63813 7.72346 4.68969 7.6766L4.68979 7.67671L4.6985 7.6684L10.9885 1.6684Z" fill="#B8BDCC" stroke="#AAAFBD"/>
</svg>
