<svg width="16" height="16" viewBox="0 0 16 16" fill="none" xmlns="http://www.w3.org/2000/svg">
<path d="M5.0115 14.3316L5.01138 14.3317C4.94813 14.3921 4.86405 14.4258 4.77662 14.4258C4.68996 14.4258 4.60661 14.3927 4.54356 14.3333C4.51935 14.3094 4.50007 14.281 4.48681 14.2496C4.47328 14.2176 4.46631 14.1832 4.46631 14.1484C4.46631 14.1136 4.47328 14.0792 4.48681 14.0472C4.50017 14.0156 4.51966 13.9869 4.54413 13.9629L10.4725 8.28448L10.8515 7.92148L10.4706 7.56049L4.54344 1.94322C4.51928 1.91932 4.50004 1.89092 4.48681 1.85961C4.47328 1.82758 4.46631 1.79317 4.46631 1.7584C4.46631 1.72363 4.47328 1.68922 4.48681 1.65719C4.50007 1.62583 4.51934 1.59739 4.54355 1.57347C4.6066 1.5141 4.68996 1.48102 4.77661 1.48102C4.86405 1.48102 4.94813 1.5147 5.01138 1.57508L5.0115 1.5752L11.3015 7.57519L11.3014 7.5753L11.3103 7.5834C11.3619 7.63026 11.4031 7.68738 11.4313 7.7511C11.4594 7.81482 11.474 7.88372 11.474 7.9534C11.474 8.02307 11.4594 8.09198 11.4313 8.1557C11.4031 8.21941 11.3619 8.27654 11.3103 8.3234L11.3102 8.32329L11.3015 8.3316L5.0115 14.3316Z" fill="#B8BDCC" stroke="#AAAFBD"/>
</svg>
