<svg width="16" height="16" viewBox="0 0 16 16" fill="none" xmlns="http://www.w3.org/2000/svg">
<g id="en-sort-down">
<path id="Vector" d="M5.08 6.00002H10.92C11.0227 5.99298 11.1252 6.01599 11.215 6.06626C11.3049 6.11652 11.3781 6.19185 11.4259 6.28306C11.4736 6.37427 11.4937 6.4774 11.4838 6.57985C11.4739 6.68231 11.4343 6.77966 11.37 6.86002L8.45 9.80002C8.39369 9.86387 8.32444 9.915 8.24686 9.95002C8.16927 9.98504 8.08512 10.0032 8 10.0032C7.91487 10.0032 7.83072 9.98504 7.75313 9.95002C7.67555 9.915 7.6063 9.86387 7.55 9.80002L4.63 6.86002C4.56566 6.77966 4.52612 6.68231 4.5162 6.57985C4.50628 6.4774 4.52641 6.37427 4.57414 6.28306C4.62186 6.19185 4.69511 6.11652 4.78494 6.06626C4.87477 6.01599 4.9773 5.99298 5.08 6.00002Z" fill="#414348"/>
</g>
</svg>
